<svg xmlns="http://www.w3.org/2000/svg" width="1916.4" height="1008.4" viewBox="0 0 1916.4 1008.4">
  <defs>
    <style>
      .cls-1 {
        fill: #732487;
      }
    </style>
  </defs>
  <g id="Layer_2" data-name="Layer 2">
    <g id="GBH_logo" data-name="GBH logo">
      <path id="GBH_logo-2" data-name="GBH logo" class="cls-1" d="M174.36,504.2c0-77.83,22.68-147.61,62.9-203.13l-116,106.59C35.39,486.63,0,562.16,0,672.59,0,854.37,124.47,1008.4,345.65,1008.4c84.62,0,157.92-32.49,212.5-84.31l8.14-7.5v82.85H800c94.33,0,166.44-18.84,211.62-60.6l34.22-31.51v92h202.74l101.93-93.89v93.89h202.73L1733.52,831H1553.23V585.65H1408V831H1227.65V726.65C1190.45,799.24,1105.38,831,982.81,831H749.1V738.71C693.23,800.32,613.52,840,520,840c-221.18,0-345.65-154-345.65-335.8m991-9.3c26.58,15.85,47.49,34.34,62.26,59.26V401.34c-10.64,40.91-32.48,70.64-62.26,93.56M1063,623.29c0-29.55-16.11-51.08-61.78-51.08H920.51V677.54h76.25c49.26,0,66.26-23.8,66.26-54.25m-5.37-247.15c0-24.18-16.12-46.18-51-46.18h-86.1V429h87.89c34,0,49.25-28.69,49.25-52.87M480.23,586.54V422.29H749.1V280.61l-116.4,107c-29.78-33.87-66-51.33-119-51.33-94,0-159,72.55-159,168,0,100.43,65,168,160.81,168,58.8,0,113.05-32.18,126-85.63ZM1916.4,665.1V9H1714.2l-102.33,95.07V9H1409.1l-50.9,47.2C1317.93,24.47,1256,9,1170.09,9H931.9L889.39,48.33C838.37,18.12,776.19,0,704.1,0,607.24,0,528,32.88,465.39,90.39L326.05,218.75c52.17-32.15,115.62-50.36,186.8-50.36,98.17,0,178,33.61,236.25,85.6V177.35H987.29c143,0,219.56,43,240.36,132.21V177.35H1408v240h145.2v-240H1733.6V831Z"/>
    </g>
  </g>
</svg>
