<svg id="Layer_1" data-name="Layer 1" xmlns="http://www.w3.org/2000/svg" width="777" height="777" viewBox="0 0 777 777">
  <title>The World</title>
  <g id="tw-globe">
    <g id="Globe">
      <path id="Oval" d="M388,770c210.42,0,381-170.58,381-381S598.42,8,388,8,7,178.58,7,389,177.58,770,388,770Zm0-24.52C191.12,745.48,31.52,585.88,31.52,389S191.12,32.52,388,32.52,744.48,192.12,744.48,389,584.88,745.48,388,745.48Z"/>
      <path id="Shape" d="M652.33,594.49A396.6,396.6,0,0,1,561,607.71c43.06-53.57,62.54-102.25,69.34-122.48a476.8,476.8,0,0,0,80.42-5.56A327.83,327.83,0,0,1,697,518.91,334.33,334.33,0,0,1,652.33,594.49ZM430.64,719.69a488.12,488.12,0,0,0,101-78.87,477.16,477.16,0,0,0,81.79-4.75A335.73,335.73,0,0,1,430.64,719.69ZM235,684.56A979.58,979.58,0,0,1,251.55,564c17,9,34.59,17.43,52.69,25.12s36.39,14.45,54.69,20.42a980.34,980.34,0,0,1-75.18,95.62c-8.29-2.77-16.61-5.83-24.83-9.3S242.74,688.65,235,684.56ZM100.62,220.69a480.9,480.9,0,0,0,52,61.58c-9.8,18.81-31.48,66.73-40.07,135.14a392.76,392.76,0,0,1-54-75,332.4,332.4,0,0,1,42.05-121.77ZM236,91.92a272.11,272.11,0,0,0,31.77,51.76c-39.86,31.44-75.61,69-98.71,107.92a424.72,424.72,0,0,1-48.63-61.11A333.46,333.46,0,0,1,236,91.92Zm369.27,41.47c-3.49,4.93-11,7.62-15.54,8.74-22.49,5.46-57.08.08-90.33-14C446.15,105.55,419.23,71.85,421.67,56a333.93,333.93,0,0,1,183.59,77.44Zm-72.93,132a664.58,664.58,0,0,0,7.34-90.92c15.7,2.72,30.72,3.51,44,2.15,12.45,27.11,22.48,61.29,28.75,97.94A385.61,385.61,0,0,1,532.33,265.36ZM489,432.41A831.53,831.53,0,0,0,526.8,298.29a408.8,408.8,0,0,0,90.17,9.6c5.19,50.32,2.84,102-10.22,143.38A620.35,620.35,0,0,1,489,432.41ZM411.2,590.27a900.26,900.26,0,0,0,65.51-126.84,664.41,664.41,0,0,0,118.76,20.23c-9.63,24.57-32.64,73.14-78.4,123.46A567.61,567.61,0,0,1,411.2,590.27ZM303.81,394.4a760.94,760.94,0,0,0,68.85,33.5,757,757,0,0,0,71.94,26.43A871.79,871.79,0,0,1,378,580.88c-20.3-6.39-40.62-13.76-60.79-22.26s-39.53-18-58.22-28.24A875.23,875.23,0,0,1,303.81,394.4ZM358.93,227A829,829,0,0,0,288.68,347.3a625,625,0,0,1-95.24-71.7c20.67-38,56.24-75.52,95.95-106.73A404.07,404.07,0,0,0,358.93,227ZM390.5,72.17c-30.45,11.37-63.8,29.39-95.91,51.7A243.66,243.66,0,0,1,266.21,78.2,334.52,334.52,0,0,1,388.58,54.45,53.15,53.15,0,0,0,390.5,72.17Zm-11.74,128A383.46,383.46,0,0,1,316.55,149c30.5-20.83,61.81-37.3,89.78-47.17,8.27,10.51,19.22,20.76,32.43,30.29A663.23,663.23,0,0,0,378.76,200.16Zm115.86,90a782.46,782.46,0,0,1-37.56,133.29,741.12,741.12,0,0,1-71.4-26A730.07,730.07,0,0,1,317.4,364a786.62,786.62,0,0,1,69.71-119.5,507.64,507.64,0,0,0,52.4,26A498.18,498.18,0,0,0,494.62,290.13ZM452.5,240a454.56,454.56,0,0,1-45.35-22.34c24-30.73,45.62-53.24,60.91-67.73,5.86,3.09,11.9,6,18.34,8.72,6.68,2.87,13.37,5.26,20.05,7.48.22,21-.94,52.21-6.36,91A450.37,450.37,0,0,1,452.5,240Zm-309,208.62c4.4-67.89,23.42-118.2,34.43-142.19a661.79,661.79,0,0,0,97,71.35A899.22,899.22,0,0,0,229.11,513,570.46,570.46,0,0,1,143.47,448.58Zm-.7,43.22A626.89,626.89,0,0,0,221.15,547a1010.05,1010.05,0,0,0-17.84,118.55,326.27,326.27,0,0,1-29.44-21.92C153,588.44,144.27,537.21,142.77,491.8ZM122.53,589A335.54,335.54,0,0,1,55.86,400a476.41,476.41,0,0,0,53.21,61.5C107.89,499.67,111.49,542.59,122.53,589ZM355.62,720.72a327.32,327.32,0,0,1-36.34-5.82,1005,1005,0,0,0,73-95.32,620.62,620.62,0,0,0,94.14,18C452.73,668.08,409.82,697.44,355.62,720.72ZM698.31,261.56a239.43,239.43,0,0,1-52.55,11.3c-6.34-38.92-16.62-75.69-29.78-105.66a50.67,50.67,0,0,0,13.67-10.92A335,335,0,0,1,698.31,261.56ZM650.12,306a273,273,0,0,0,59.27-13.13,333.3,333.3,0,0,1,9.4,151.6,427.12,427.12,0,0,1-77.8,7.64C653,408.33,655.22,356.5,650.12,306ZM533,50.42C346.58-28.67,130.52,58.58,51.39,245S59.53,647.28,246,726.39A367.24,367.24,0,0,0,727.55,531.87C806.67,345.51,719.41,129.53,533,50.42Z"/>
    </g>
  </g>
</svg>
