<svg width="1000px" height="189px" viewBox="0 0 1000 189">
    <g id="tw-white">
        <path d="M177.762989,78.2711835 L177.652254,78.5069045 C174.551677,85.1176476 170.29805,91.8568059 165.010897,98.5414317 L163.952764,99.880116 L163.629347,98.2036822 C160.235234,80.5967297 153.88116,68.8669705 151.307891,64.6415833 L151.009083,64.1525502 L151.38523,63.7198086 C156.030823,58.3844218 160.112196,52.8502552 163.518612,47.2703518 L164.154899,46.2271984 L164.836885,47.242206 C167.028733,50.5088771 168.833888,53.5521409 170.352538,56.5479088 C173.678101,63.2061479 176.154696,70.4273029 177.710258,78.0161123 L177.762989,78.2711835 Z M179.299216,90.0449205 L179.38007,92.6255379 C179.701729,102.858293 178.262175,112.892268 175.101836,122.449524 C172.788707,129.385702 169.484236,136.167079 165.278067,142.60543 L163.211015,145.770072 L163.852575,142.044273 C165.742099,131.053341 166.188554,120.087036 165.179636,109.446167 L165.14624,109.1049 L165.37474,108.849828 C170.157434,103.526755 174.382938,97.9362972 177.933486,92.235015 L179.299216,90.0449205 Z M153.144685,157.246519 L153.084923,157.440022 L152.937276,157.58251 C150.74367,159.677612 148.404176,161.674204 145.786965,163.684869 L144.742893,164.487024 L144.537242,163.187041 C142.902584,152.88744 140.714251,142.800691 138.033763,133.206494 L137.882601,132.668206 L138.343118,132.351565 C145.171771,127.651218 151.555726,122.521647 157.317457,117.1071 L158.584757,115.916181 L158.63573,117.654184 C159.022423,130.808824 157.175084,144.13058 153.144685,157.246519 Z M137.893148,169.007942 C136.12842,170.075723 134.063126,171.305343 131.901158,172.374883 C129.739191,173.474328 127.536797,174.389066 125.668365,175.138448 L125.190271,175.330191 L124.826428,174.967814 C117.23845,167.42826 110.256877,159.60197 104.071541,151.703557 L103.424709,150.878534 L104.398473,150.493288 C108.91927,148.700753 113.469947,146.66546 117.923952,144.443702 C121.813735,142.492846 125.937292,140.179614 130.901029,137.166255 L131.792181,136.626208 L132.062866,137.63242 C134.715231,147.494002 136.79986,157.788326 138.262264,168.230415 L138.334329,168.742316 L137.893148,169.007942 Z M116.769145,178.255594 C113.455886,179.184406 110.418585,179.881014 107.486747,180.385879 L107.282854,180.421061 L107.089507,180.352456 C94.1915264,175.754137 82.4307756,169.271809 72.1359442,161.083143 L70.7719713,159.99953 L72.4874836,159.698721 C80.1809235,158.35476 88.1345025,156.296599 96.1285085,153.584048 L96.659333,153.404618 L97.0003263,153.849674 C103.032742,161.70235 109.801634,169.475866 117.117169,176.955611 L118.043475,177.900254 L116.769145,178.255594 Z M88.108137,181.321727 C80.4639127,180.860839 73.0552197,179.455309 66.0894664,177.147354 C56.5750524,173.96512 47.712744,169.146912 39.7433457,162.826423 L37.7255096,161.223872 L40.2935049,161.431447 C46.9463881,161.969735 53.9683877,161.90113 61.0501491,161.225631 L61.3946577,161.193967 L61.6495237,161.426169 C69.5187333,168.566405 78.5550537,174.763757 88.5106496,179.844073 L91.8520317,181.548652 L88.108137,181.321727 Z M29.1567366,152.883921 L28.9827246,152.68866 C23.7922453,146.839612 19.4858875,140.5244 16.1796594,133.917175 C14.6979209,130.984735 13.3866789,127.835925 12.0578599,124.011615 L11.657105,122.859397 L12.869916,122.975498 C19.1325904,123.568319 26.0104589,123.592946 33.2750207,123.038826 L33.8445145,122.996608 L34.0589536,123.5261 C35.9396894,128.157842 41.6082623,140.355525 53.636183,153.529515 L54.7857169,154.787281 L53.0825084,154.840054 C51.9171553,154.875236 50.7570753,154.892827 49.604026,154.892827 C42.6119073,154.892827 35.8184083,154.234919 29.4133603,152.936695 L29.1567366,152.883921 Z M9.55314167,115.573155 L9.42834518,115.04718 C6.38401394,102.200385 6.34007151,88.6376309 9.2982756,75.8260178 L9.48459148,75.0273809 L10.2720398,75.249029 C14.8877521,76.5402173 19.993862,77.3300586 25.4462382,77.5992027 L26.2161094,77.6361441 L26.189744,78.4083943 C25.9383933,85.6277901 26.2811442,92.6941433 27.2056929,99.4121922 C27.4060703,101.122049 27.5888708,102.3675 27.6925749,103.028927 L27.8648293,103.567215 C28.6399736,107.854171 29.6365879,111.792823 30.8265487,115.279383 L31.1622689,116.259208 L30.128743,116.3155 C27.9140448,116.43512 25.7046196,116.494929 23.5619869,116.494929 C18.8935436,116.494929 14.360443,116.208194 10.0874816,115.643519 L9.55314167,115.573155 Z M11.657105,67.5740231 C15.1443759,57.2603492 20.4473478,47.8279903 27.4218896,39.5425725 L27.965018,38.8969784 L28.5679081,39.4897992 C29.5293683,40.4326832 30.7281177,41.2401157 32.1325176,41.8839507 L32.7881386,42.1847589 L32.542061,42.8637761 C30.9513452,47.2615562 29.606707,52.26623 28.545058,57.7370685 L28.4202615,58.3738671 C28.2849188,59.0827892 28.1601224,59.800507 28.0370836,60.5217429 L27.831433,61.7460849 C27.6855442,62.6590641 27.5502015,63.5773205 27.4218896,64.5043726 C27.1424158,66.5185559 26.9279767,68.2917408 26.7645109,69.9382697 L26.6924453,70.6735786 L25.9542126,70.6436737 C21.0484802,70.4431349 16.4169485,69.7500447 12.1896872,68.5784761 L11.3916928,68.3585871 L11.657105,67.5740231 Z M33.3435709,33.2044918 C34.6600859,31.9256174 36.0539397,30.6625749 37.6024708,29.3485182 L41.34285,26.1733209 L38.7748547,30.3564894 C37.8344868,31.8869169 36.9239997,33.5193729 36.0680013,35.2081204 L35.7182196,35.8994515 L35.0239292,35.5581837 C34.2821811,35.1905293 33.6986257,34.7577878 33.2890823,34.2687546 L32.8215349,33.7111161 L33.3435709,33.2044918 Z M42.555661,35.5828113 C45.5824153,28.0239068 48.4580076,22.8573947 49.5530528,20.9874586 L49.6585146,20.8080292 L51.3845731,19.8141309 L51.3775423,21.1774427 C51.3511769,25.6279962 51.454881,30.0926226 51.6833816,34.4446658 L51.7150202,35.0726688 L51.1103724,35.2397845 C48.3595765,36.0085164 45.7441234,36.4852358 43.3378362,36.6558697 L42.091629,36.7438253 L42.555661,35.5828113 Z M52.2651793,43.0643149 C52.6132033,47.9511282 53.4709595,55.8882418 55.5819536,65.939808 L55.7331156,66.6540075 L55.0317944,66.8545463 C48.1609568,68.82827 41.3252731,70.0596485 34.7163323,70.5152585 L33.777722,70.5785865 L33.8866993,69.6427389 C34.874525,61.1145637 36.7341684,52.5828702 39.4128987,44.2851386 L39.5939415,43.7204637 L40.2284701,43.630749 C43.5944599,43.7626824 47.3383546,43.333459 51.298446,42.3606701 L52.2001445,42.1390219 L52.2651793,43.0643149 Z M57.2640697,73.4670485 L57.4574163,74.2551307 C61.1046377,89.0826862 65.0875791,97.6337299 65.2545603,97.9908297 C66.5763485,101.350734 67.9438368,104.612127 69.3412059,107.732792 L69.6980184,108.527911 L68.8683854,108.797055 C58.7651429,112.081317 48.6847505,114.345294 38.906682,115.529177 L38.3020342,115.6013 L38.0823221,115.033107 C35.6918541,108.842792 34.1275038,101.475631 33.429698,93.1339213 L33.389271,92.6413699 C33.3031438,91.5524795 33.2468975,90.4495163 33.1924089,89.3483121 L33.1625281,88.7361411 C33.139678,88.2893267 33.116828,87.8442713 33.1027664,87.4009751 L33.0834317,86.3068074 C33.0289431,83.6276797 33.0623394,80.9397565 33.1818628,78.3116431 L33.2135013,77.6009618 L33.9218532,77.5657796 C41.1582918,77.1910887 48.7480276,75.8858276 56.4836522,73.6886966 L57.2640697,73.4670485 Z M59.8373381,15.7101224 L60.0394733,15.7312318 C62.1750751,15.954639 67.9877792,16.6952252 75.832381,18.7287587 L77.0381612,19.0418807 L76.2313782,19.9935603 C74.6582394,21.8494235 72.6948918,23.7000094 70.3958241,25.4925446 L69.9019113,25.8777901 L69.4185446,25.4767126 C64.1173304,21.0947644 60.3048855,18.3769363 58.9127895,17.4129429 L57.7562248,16.6125469 L59.8373381,15.7101224 Z M74.6476932,10.9886657 C76.3807825,10.6051793 77.8256094,10.3219622 79.1966131,10.0967959 L79.9155112,9.97893536 L80.0842501,10.6878575 C80.2213505,11.2578098 80.2371698,11.9174768 80.1334656,12.6475083 L80.0174576,13.4654955 L79.2071593,13.3054163 C77.7359669,13.0134037 76.2190744,12.7530551 74.7004241,12.5278887 L70.4907398,11.9051631 L74.6476932,10.9886657 Z M83.5240632,21.7984093 L83.8404487,21.3357628 L84.3818193,21.4870464 C91.7500853,23.552244 100.037627,27.2428611 108.346261,32.1595793 L109.151286,32.6345395 L108.543123,33.3434617 C104.175246,38.4360911 99.0796818,43.2173576 93.4005628,47.5588462 L92.8205228,48.0021424 L92.3389138,47.4532995 C87.0078187,41.3843629 81.4904077,35.8677875 75.9431159,31.056616 L75.2488256,30.4532406 L75.9536621,29.863938 C79.1421245,27.1971242 81.6890275,24.4828143 83.5240632,21.7984093 Z M86.9093877,14.2395048 C87.2152269,12.7266684 87.2662002,11.3123423 87.0623073,10.0369861 L86.9269646,9.18733494 L87.7864785,9.13280246 C98.527765,8.46082166 109.409667,9.84172462 119.838084,13.2104242 L120.629047,13.4654955 L120.324966,14.2412639 C118.7114,18.3628634 116.523067,22.4721492 113.821487,26.4547789 L113.403155,27.0739863 L112.765111,26.6817043 C108.151156,23.8442566 103.354401,21.3568721 98.5084303,19.2916746 C94.6186468,17.5695039 90.9011176,16.174528 87.452516,15.1454475 L86.7687719,14.9396314 L86.9093877,14.2395048 Z M121.630935,90.9983592 L121.323338,90.3914656 L121.880528,90.0027018 C130.444028,84.0094071 138.34136,77.3669999 145.354571,70.2619464 L146.098077,69.5090464 L146.600779,70.4413758 C149.801545,76.3959701 155.510545,88.9894533 157.772701,106.402904 L157.821916,106.774076 L157.563535,107.044979 C151.234068,113.657482 144.201522,119.735214 136.664517,125.112819 L135.7927,125.733786 L135.465768,124.71526 C131.714842,113.064661 127.060461,101.720147 121.630935,90.9983592 Z M79.5674872,113.275754 L79.1807938,112.501745 L79.9875768,112.192141 C86.1992781,109.81734 92.2035711,107.185708 97.8352324,104.36937 C103.257728,101.642746 108.797989,98.4640308 114.770643,94.6537941 L115.501845,94.1876294 L115.890296,94.9616387 C121.337399,105.825915 125.947839,117.309398 129.589787,129.091931 L129.765556,129.665401 L129.25934,129.98556 C123.870241,133.385923 119.275621,136.014037 114.798766,138.262182 C109.836788,140.740771 104.732435,142.990675 99.6210525,144.955603 L99.0621049,145.170215 L98.7088078,144.6847 C91.409092,134.634893 84.9688901,124.066148 79.5674872,113.275754 Z M72.6175532,114.836087 L72.9198771,115.446499 C78.2210913,126.184119 84.5189197,136.710645 91.6375927,146.734066 L92.2580597,147.604826 L91.2403531,147.932021 C82.1425133,150.862702 73.0991621,152.890958 64.3598925,153.960498 L63.9890185,154.006235 L63.7200908,153.745886 C51.0277606,141.444416 44.3660889,129.339966 41.5238928,123.218256 L41.0791955,122.25954 L42.1267829,122.113533 C51.8626667,120.767813 61.9026321,118.391252 71.9724784,115.050698 L72.6175532,114.836087 Z M97.3237425,53.3216973 L97.9670596,52.8291459 C104.243796,48.0320473 109.842061,42.6966605 114.60542,36.9707507 L115.062421,36.4219078 L115.651249,36.8282626 C118.607696,38.8635553 121.495592,41.041336 124.235842,43.2982768 C131.029341,49.0611279 137.04418,55.6384478 142.122167,62.8543255 L142.493041,63.3820591 L142.048343,63.8464647 C135.460495,70.7421839 127.622924,77.4268097 118.755342,83.7156353 L118.043475,84.2205005 L117.61987,83.4570459 C116.03267,80.602007 114.347038,77.729377 112.610434,74.9218342 C108.376141,67.8009486 103.40889,60.7504275 97.8369901,53.9479412 L97.3237425,53.3216973 Z M64.9118094,70.9567956 C69.328902,69.3577628 73.8145448,67.4262577 78.245699,65.216813 C82.2163366,63.2202208 86.252009,60.8559742 90.94506,57.7775281 L91.5321308,57.3922826 L91.9768282,57.9358482 C94.6573161,61.199001 97.2428885,64.5430731 99.664995,67.8801086 C104.069784,74.0932924 108.191583,80.6618168 111.916143,87.4132889 L112.271198,88.0571239 L111.652489,88.4529241 C105.704442,92.2526061 100.169454,95.4330807 94.7346548,98.1720182 C89.1416629,100.979561 83.1461583,103.602397 76.911607,105.966644 L76.2243475,106.226992 L75.9220236,105.556771 C74.631874,102.70525 73.3803937,99.7622555 72.1974636,96.8104655 C69.13204,88.5021792 66.5165868,80.1235285 64.4196542,71.8856068 L64.2438845,71.197794 L64.9118094,70.9567956 Z M58.288807,32.657408 L58.2448646,31.4840802 C58.1780721,29.7900553 58.1446759,28.2138909 58.1358874,26.771419 L58.1270989,25.1618315 L59.3979139,26.1486934 C60.644121,27.1144459 61.8709936,28.0872348 63.0715006,29.0653012 L63.9749569,29.80061 L62.9537349,30.3582485 C62.3438141,30.6924798 61.7268624,31.0214338 61.0993646,31.3363148 C60.5738132,31.6001816 60.0570502,31.8394209 59.5402873,32.0786601 L58.288807,32.657408 Z M59.524468,39.6358055 C61.1591263,38.9726202 62.6900804,38.2848074 64.2034575,37.5336666 C65.7924156,36.7191977 67.379616,35.8220506 68.9140855,34.8738892 L69.3939368,34.5765992 L69.8263303,34.9389763 C70.4801936,35.4878193 71.1920609,36.0999903 71.9320513,36.7438253 C76.9924611,41.3896402 81.8524933,46.3186722 86.3926247,51.4095425 L87.0025456,52.0920779 L86.234432,52.5881475 C82.1583326,55.2232974 78.6271193,57.2691447 75.1205137,59.0282568 C71.5119617,60.8506969 67.7065477,62.5042622 63.4898325,64.0786675 L62.6408649,64.3953076 L62.4510336,63.5087152 C61.1925225,57.6455947 60.197666,51.8282111 59.4893141,46.221921 C59.2801482,44.0986728 59.1272285,42.1460584 59.0358283,40.4010192 L59.0077051,39.8451398 L59.524468,39.6358055 Z M127.097372,15.9036248 L127.847909,16.2325787 C139.900438,21.5204696 150.763005,29.6792313 159.26147,39.8257896 L159.609494,40.2391809 L159.344082,40.710623 C156.217139,46.3028402 152.367783,51.8493205 147.90499,57.195262 L147.244096,57.9903807 L146.66054,57.1354522 C140.499812,48.1200029 131.233233,39.1942684 119.862691,31.3204828 L119.226405,30.8807048 L119.658799,30.2386289 C122.643368,25.8091847 125.047898,21.2425298 126.802079,16.6688385 L127.097372,15.9036248 Z M93.1140582,2.03302621 C78.5779038,2.03302621 64.5813624,5.35598888 51.5146427,11.9069222 C5.61238494,34.9407354 -13.0209612,91.0687237 9.97850435,137.025526 C21.1592151,159.281812 40.3093242,175.857925 63.8993759,183.700046 C73.494644,186.891076 83.415086,188.509459 93.3847435,188.509459 C107.880471,188.509459 121.885801,185.167146 135.012282,178.575753 C157.248907,167.414187 173.813444,148.257457 181.651015,124.632582 C189.506163,101.004189 187.69222,75.7275075 176.544905,53.4606671 C160.644778,21.7385994 128.675784,2.03302621 93.1140582,2.03302621 L93.1140582,2.03302621 Z" id="Fill-1"></path>
        <path d="M483.313181,70.1486742 C512.24226,70.1486742 521.589106,90.689628 523.204186,116.504879 L458.338348,116.504879 C458.338348,135.049347 462.29014,152.136183 483.494816,152.136183 C497.868538,152.136183 506.675388,144.497888 510.445545,130.318869 L520.869929,130.318869 C516.918138,149.950975 504.517857,160.680842 483.313181,160.680842 C456.718359,160.680842 441.267099,145.225463 441.267099,115.414758 C441.267099,85.5966038 456.718359,70.1486742 483.313181,70.1486742 Z M730.78062,70.1486742 C759.996767,70.1486742 777.599334,89.2319951 777.599334,115.414758 C777.599334,141.590072 759.996767,160.680842 730.78062,160.680842 C701.564473,160.680842 683.956948,141.590072 683.956948,115.414758 C683.956948,89.2319951 701.564473,70.1486742 730.78062,70.1486742 Z M982.781146,37.3697858 L982.781146,142.85594 C982.781146,147.220868 985.318791,149.402089 989.485482,149.402089 L1000,149.402089 L1000,157.950589 L967.372066,157.950589 L967.372066,141.581491 L967.013082,141.581491 C960.484524,153.767016 952.874063,160.680842 936.925269,160.680842 C909.739038,160.680842 897.773729,137.579273 897.773729,115.394412 C897.773729,93.204583 909.739038,70.1079819 936.925269,70.1079819 C948.524167,70.1079819 960.850935,76.6541306 967.013082,88.1117539 L967.372066,88.1117539 L967.372066,56.2828141 C967.372066,50.283213 965.017626,45.9182858 959.038685,45.9182858 L949.611022,45.9182858 L949.611022,37.3697858 L982.781146,37.3697858 Z M584.171211,37.3697858 L584.171211,46.7893148 L575.096662,46.7893148 C570.923857,46.7893148 568.020498,48.0558061 568.020498,51.8552799 C568.020498,54.0320619 568.380008,55.8427486 569.289943,59.2810746 L590.342401,136.428204 L590.70935,136.428204 L615.758576,60.5500395 C616.301561,58.7393527 611.399817,46.7893148 604.861679,46.7893148 L595.970604,46.7893148 L595.970604,37.3697858 L648.426952,37.3697858 L648.426952,46.7893148 L639.535878,46.7893148 C635.722584,46.7893148 631.366304,47.3310366 631.366304,52.3970018 C631.366304,55.2985531 633.724199,61.9995784 634.634134,65.2548568 L655.508076,136.062109 L655.870066,136.062109 L677.470468,63.8102651 C678.375443,60.9087138 679.830842,55.8427486 679.830842,52.5800494 C679.830842,47.2416453 676.147908,46.803191 671.711946,46.7896588 L662.041255,46.7893148 L662.041255,37.3697858 L708.147898,37.3697858 L708.147898,46.7893148 L702.879205,46.7893148 C695.981556,46.7893148 692.894722,50.7693626 691.808751,54.3907361 L660.042871,158.339493 L645.523592,158.339493 L621.203305,78.4788069 L620.836356,78.4788069 L594.517685,158.339493 L579.998406,158.339493 L550.409426,57.4703878 C547.873015,49.1417234 546.417616,46.7893148 537.343067,46.7893148 L533.348778,46.7893148 L533.348778,37.3697858 L584.171211,37.3697858 Z M835.697876,70.1486742 C848.164712,70.1486742 856.415009,76.9053395 856.415009,89.5008212 C856.415009,96.4420539 853.482961,101.73465 846.146582,101.73465 C841.196404,101.73465 835.883163,98.6294277 835.883163,93.3368312 C835.883163,86.7647334 840.282487,83.8390898 846.88022,83.8390898 C845.966302,79.6414273 840.282487,78.7310608 836.246226,78.7310608 C819.017003,78.7310608 810.038076,98.6294277 810.038076,116.709556 L810.038076,141.359287 C810.038076,147.021019 813.338195,149.757107 819.20229,149.757107 L829.100142,149.757107 L829.100142,158.339493 L775.206551,158.339493 L775.206551,149.757107 L787.125037,149.757107 C793.171916,149.757107 794.456409,147.021019 794.456409,141.359287 L794.456409,89.8699561 C794.456409,84.2082247 793.171916,81.4671486 787.125037,81.4671486 L774.477921,81.4671486 L774.477921,72.884762 L809.304438,72.884762 L809.304438,91.3265425 L809.672509,91.3265425 C814.252112,78.7310608 825.071394,70.1486742 835.697876,70.1486742 Z M321.092704,37.3697858 L321.092704,84.6857784 L311.621908,84.6857784 C311.621908,58.2172498 307.069358,46.7993075 280.477988,46.7993075 L273.74121,46.7993075 L273.74121,138.888194 C273.74121,144.687548 276.291135,148.134474 281.933312,148.134474 L297.414469,148.134474 L297.414469,157.559043 L232.03438,157.559043 L232.03438,148.134474 L247.878746,148.134474 C253.525898,148.134474 256.075823,144.687548 256.075823,138.888194 L256.075823,46.7993075 L248.062838,46.7993075 C222.745188,46.7993075 218.19015,59.8466157 218.19015,84.6857784 L208.721841,84.6857784 L208.721841,37.3697858 L321.092704,37.3697858 Z M363.312987,37.3697858 L363.312987,87.2189719 L363.671753,87.2189719 C370.740671,76.7098096 381.607556,70.0016756 395.554876,70.0016756 C414.574399,70.0016756 424.71633,82.5091635 424.71633,101.360778 L424.71633,140.700802 C424.71633,146.321867 425.983144,149.038302 431.96092,149.038302 L442.827805,149.038302 L442.827805,157.559043 L392.108253,157.559043 L392.108253,149.038302 L402.074513,149.038302 C408.049815,149.038302 409.319103,146.321867 409.319103,140.700802 L409.319103,100.090467 C409.319103,87.5854554 404.610614,80.1517831 390.663294,80.1517831 C373.454918,80.1517831 363.312987,93.9271058 363.312987,108.432919 L363.312987,140.700802 C363.312987,146.321867 364.582275,149.038302 370.557577,149.038302 L381.607556,149.038302 L381.607556,157.559043 L328.896236,157.559043 L328.896236,149.038302 L340.671169,149.038302 C346.646471,149.038302 347.915759,146.321867 347.915759,140.700802 L347.915759,54.2280273 C347.915759,48.6119151 346.646471,45.8905274 340.671169,45.8905274 L328.896236,45.8905274 L328.896236,37.3697858 L363.312987,37.3697858 Z M882.400785,37.3697858 L882.400785,140.700802 C882.400785,146.321867 883.644593,149.038302 889.513812,149.038302 L900.895142,149.038302 L900.895142,157.559043 L848.611477,157.559043 L848.611477,149.038302 L860.167716,149.038302 C866.041794,149.038302 867.280744,146.321867 867.280744,140.700802 L867.280744,54.2280273 C867.280744,48.6119151 863.0173,45.8905274 860.167716,45.8905274 L848.611477,45.8905274 L848.611477,37.3697858 L882.400785,37.3697858 Z M730.781869,78.7336212 C708.222157,78.7336212 701.124719,95.8017105 701.124719,115.414758 C701.124719,135.027806 708.222157,152.095895 730.781869,152.095895 C753.339096,152.095895 760.431563,135.027806 760.431563,115.414758 C760.431563,95.8017105 753.339096,78.7336212 730.781869,78.7336212 Z M940.689466,80.2945206 C922.326175,80.2945206 914.9415,97.2170614 914.9415,115.417244 C914.9415,136.160282 922.144141,150.534996 938.711691,150.534996 C959.060137,150.534996 966.444812,133.612455 966.444812,115.417244 C966.444812,97.2170614 959.060137,80.2945206 940.689466,80.2945206 Z M482.770958,78.7336212 C466.129728,78.7336212 458.43487,92.3644081 458.43487,108.390711 L506.036416,108.390711 C506.036416,92.3644081 499.055312,78.7336212 482.770958,78.7336212 Z" id="The-World"></path>
    </g>
</svg>