<svg id="Layer_1" data-name="Layer 1" xmlns="http://www.w3.org/2000/svg" width="2.84in" height="1.06in" viewBox="0 0 204.25 76.5">
  <defs>
    <style>
      .cls-1 {
        fill: #0061a8;
      }
    </style>
  </defs>
  <title>WGBH-Logo</title>
  <path class="cls-1" d="M16.26,19.6l7.49,37.46,15.5,0,4.19-14.33,4.33,14.34H63l3.07-15C68.78,58,84.9,58.56,89.56,58.56a38.64,38.64,0,0,0,18.78-5v3.56h26.81c7.63,0,9.93-2.4,11.61-5.9v5.9l16.1,0,0-13.21h7.63l0,13.21h15.74l0-37.39-15.74,0V33.16H163V19.78l-16.2,0V26.7c-1.52-4.49-4.5-6.94-12.22-6.95l-26.11,0v5.5c-2.22-2.59-7.72-6.68-19.54-6.69s-16.05,2.87-20.4,9l1.43-7.78H57.25L53.82,33.32l-3.2-13.6H36.89L33.36,33.54,30.24,19.61ZM32.92,2.74h14L48.4,9.6l7.17-7,12.84,0,1.67,7,7.11-7H90.48L89,8.57C94.6,4,99,1.22,108.35,1.22S122,4,125.61,7.83l5.26-5.08,20.86,0c6,0,7.86,4.26,7.86,7.45l7.72-7.44h14.36V9.93l7.17-7.08h14l0,38.4-34,33.24-15.83,0v-7.2l-7.49,7.2-15.72,0V67.88c-4.45,6-8.41,6.58-13.6,6.59l-24.07,0V69.9C90.06,71.51,82,75.52,71.19,75.52S54.4,72.15,51.5,67.65L44.26,74.4H31.2l-1.78-6.74-7,6.83H9L1,34Z"/>
  <path class="cls-1" d="M94.46,31.22l14,0v4.1h-19V42.7h4.81V46.8c0,2.13-1.23,3.57-4.66,3.57s-4.66-2.59-4.66-3.8.09-14,.08-15.51,1.15-3.95,4.74-3.95,4.74,1.91,4.74,4.11"/>
  <path class="cls-1" d="M123.25,27.9v6.22s3.13.1,5,.1a3.14,3.14,0,0,0,3.44-3.12c0-2-1.3-3.2-3.44-3.21h-5"/>
  <path class="cls-1" d="M123.24,42.86v6.32s3.37.08,5.28.08S132,48.11,132,46.15a3.13,3.13,0,0,0-3.43-3.28h-5.28"/>
  <path class="cls-1" d="M146.77,33.9V44c-1.31-4-4.2-4.7-6.18-5.39a8.84,8.84,0,0,0,6.18-4.66"/>
</svg>
